<?xml version="1.0" encoding="UTF-8"?>
<svg id="Layer_1" data-name="Layer 1" xmlns="http://www.w3.org/2000/svg" viewBox="0 0 1430.05 420.04">
  <defs>
    <style>
      .cls-1, .cls-2 {
        stroke-width: 0px;
      }

      .cls-2 {
        fill: #e43636;
      }
    </style>
  </defs>
  <path class="cls-1" d="m265.65,221.07c12.89-.77,25.77-1.51,38.66-2.22.07,21.48.13,42.95.2,64.43-12.89.48-25.78.98-38.66,1.51.05,15.35.09,30.69.14,46.04-24.18.66-48.35,1.36-72.52,2.11-.04-14.98-.09-29.97-.13-44.95-64.48,3.1-128.92,6.72-193.34,10.89v-57.08C66.37,175.2,130.08,106.1,192.63,35.93c24.12-3.3,48.26-6.4,72.43-9.3.2,64.82.4,129.63.6,194.45Zm-72.82-112.89c-37.26,42.69-75.02,84.91-113.58,126.43,37.95-3.2,75.92-6.14,113.92-8.83-.11-39.2-.22-78.4-.33-117.6Z"/>
  <path class="cls-2" d="m473.37,153.75c54.28,56.31,107.53,113.59,160.37,171.24-33.05.17-66.11.43-99.16.78-40.9-45.74-82.2-91.11-124.2-135.85l.38,137.64c-25.42.47-50.84.99-76.26,1.56-.31-103.34-.63-206.67-.94-310.01,25.43-2.51,50.87-4.81,76.34-6.9l.31,114.63c39.14-40.65,78.12-81.46,117.14-122.23,33.51-1.59,67.03-2.8,100.57-3.62-51.67,50.76-103.03,101.84-154.54,152.76Z"/>
  <path class="cls-2" d="m876.11,214.56c-66.92-1.34-133.84-1.87-200.77-1.58.96,18.21,7.79,36.75,19.39,50.61,11.37,13.6,30.22,19.78,47.4,19.98,9.67.11,21.71-2.52,30.43-6.47,8.21-3.71,17.64-11.37,22.88-18.69,5.19-7.24,9.05-18.79,8.69-27.95,23.98.27,47.96.63,71.95,1.07-1.1,19.45-5,36.88-16.13,53.12-11.07,16.15-28.31,28.55-46.32,36.06-22.83,9.52-47.93,13.07-71.89,12.88-24.54-.19-48.07-5.54-70.41-16.2-20.42-9.74-38.27-25.97-50.55-45.51-12.64-20.12-18.49-43.73-18.52-67.36-.03-23.91,5.76-47.85,18.39-68.32,12.16-19.7,29.81-36.32,50.21-46.24,22.46-10.92,46.29-16.21,70.96-16.14,23.86.07,48.25,4.86,70.21,16.69,19.53,10.53,35.94,26.2,47.04,45.43,11.76,20.38,16.92,43.89,17.06,67.29,0,.87,0,1.31,0,2.18.15,0,.22,0,.37,0-.15,0-.22,0-.37,0,0,3.66,0,5.48-.01,9.14Zm-197.09-40.65c40.87-.19,81.72-.03,122.59.48-5.72-30.66-27.62-51.99-59.43-51.86-31.98.13-56.01,20.06-63.16,51.38Z"/>
  <path class="cls-2" d="m1168.43,107.13c-42.03,90.47-82.64,181.57-122.39,273.07-7.49,16.94-24.1,28.37-41.71,32.36-22.76,5.16-46.41,7.09-69.99,7.48-.07-23.49-.14-46.98-.22-70.46,13.27.13,22.42-.92,27.46-3.16,5.04-2.24,7.57-5.36,7.58-9.37,0-1.72-.36-3.73-1.09-6.04-.73-2.31-1.22-3.75-1.46-4.32-34.79-79.49-69.22-159.13-103.58-238.81,25.98.84,51.96,1.85,77.93,3.05,25.25,64.29,50.63,128.54,76.25,192.69,24.15-61.22,48.62-122.32,73.52-183.24,25.92,2.08,51.82,4.33,77.71,6.77Z"/>
  <path class="cls-2" d="m1184.25,108.67c82.19,8.36,164.12,18.73,245.8,31.1v50.82c-50.95,27.77-100.49,57.76-149.17,89.31,49.75,2.93,99.47,6.18,149.17,9.76v50.46c-82.14-3.62-164.3-6.67-246.48-9.16.06-18.8.11-37.59.17-56.39,49.86-33.3,100.52-65.25,152.47-95.2-50.66-5.51-101.36-10.42-152.13-14.72.06-18.66.11-37.32.17-55.98Z"/>
</svg>